<?xml version="1.0" encoding="UTF-8" standalone="no"?>
<svg
   xmlns:dc="http://purl.org/dc/elements/1.1/"
   xmlns:cc="http://creativecommons.org/ns#"
   xmlns:rdf="http://www.w3.org/1999/02/22-rdf-syntax-ns#"
   xmlns:svg="http://www.w3.org/2000/svg"
   xmlns="http://www.w3.org/2000/svg"
   xmlns:sodipodi="http://sodipodi.sourceforge.net/DTD/sodipodi-0.dtd"
   xmlns:inkscape="http://www.inkscape.org/namespaces/inkscape"
   version="1.0"
   width="512px"
   height="512px"
   viewBox="0 0 5120 5120"
   preserveAspectRatio="xMidYMid meet"
   id="svg2"
   inkscape:version="0.48.4 r9939"
   sodipodi:docname="red-transparent.svg"
   inkscape:export-filename="/home/david/Dokumenty/Programming/cmgbufet/www/img/facebook.png"
   inkscape:export-xdpi="180"
   inkscape:export-ydpi="180">
  <metadata
     id="metadata25">
    <rdf:RDF>
      <cc:Work
         rdf:about="">
        <dc:format>image/svg+xml</dc:format>
        <dc:type
           rdf:resource="http://purl.org/dc/dcmitype/StillImage" />
        <dc:title></dc:title>
      </cc:Work>
    </rdf:RDF>
  </metadata>
  <defs
     id="defs23" />
  <sodipodi:namedview
     pagecolor="#ffffff"
     bordercolor="#666666"
     borderopacity="1"
     objecttolerance="10"
     gridtolerance="10"
     guidetolerance="10"
     inkscape:pageopacity="0"
     inkscape:pageshadow="2"
     inkscape:window-width="1366"
     inkscape:window-height="741"
     id="namedview21"
     showgrid="false"
     showguides="true"
     inkscape:guide-bbox="true"
     inkscape:snap-global="false"
     inkscape:zoom="0.921875"
     inkscape:cx="157.76203"
     inkscape:cy="230.43454"
     inkscape:window-x="0"
     inkscape:window-y="0"
     inkscape:window-maximized="1"
     inkscape:current-layer="svg2">
    <sodipodi:guide
       orientation="1,0"
       position="256,256"
       id="guide3010" />
    <sodipodi:guide
       orientation="0,1"
       position="256,256"
       id="guide3012" />
  </sodipodi:namedview>
  <rect
     style="fill:none;fill-opacity:1;stroke:none"
     id="rect2992"
     width="512"
     height="512"
     x="0"
     y="0"
     transform="scale(10,10)" />
  <g
     id="layer1"
     style="fill:#d5403a;stroke:none;fill-opacity:1"
     transform="translate(-4.0748548,79.689242)">
    <path
       d="M 1566,4520 C 1197,4503 934,4455 746,4371 524,4271 372,4086 319,3850 c -14,-61 -30,-247 -23,-265 5,-13 40,-15 216,-15 l 209,0 34,26 c 83,63 242,272 297,390 l 30,64 58,-59 c 206,-209 595,-343 1170,-403 95,-10 412,-13 1320,-13 l 1195,0 -2,115 c -2,197 -67,367 -190,500 -170,184 -379,268 -783,316 -114,14 -291,17 -1120,19 -542,2 -1065,-1 -1164,-5 z"
       id="path5"
       style="fill:#d5403a;fill-opacity:1"
       inkscape:connector-curvature="0" />
    <path
       d="m 1570,3450 c -111,-27 -211,-103 -251,-193 -24,-51 -24,-59 -27,-405 l -3,-353 128,3 128,3 5,315 c 5,285 7,319 24,352 24,46 70,70 140,70 69,1 121,-25 154,-75 l 27,-40 3,-314 4,-314 126,3 127,3 3,319 c 3,366 0,387 -71,482 -51,68 -123,116 -212,139 -64,16 -244,19 -305,5 z"
       id="path7"
       style="fill:#d5403a;fill-opacity:1"
       inkscape:connector-curvature="0" />
    <path
       d="m 403,3440 c -29,-4 -60,-10 -68,-14 -13,-5 -15,-64 -15,-460 l 0,-454 23,-7 c 43,-13 422,-18 493,-6 176,31 274,119 274,247 0,62 -33,134 -70,154 -23,12 -26,30 -6,30 24,0 94,79 112,126 43,112 -12,254 -126,322 -97,58 -134,65 -360,68 -113,1 -229,-1 -257,-6 z m 390,-212 c 97,-24 117,-128 31,-164 -20,-8 -83,-18 -140,-21 l -104,-6 0,101 0,101 33,4 c 41,5 131,-2 180,-15 z m 4,-403 c 58,-25 65,-94 10,-114 -34,-13 -162,-24 -196,-16 l -31,7 0,75 0,76 91,-7 c 51,-4 107,-13 126,-21 z"
       id="path9"
       style="fill:#d5403a;fill-opacity:1"
       inkscape:connector-curvature="0" />
    <path
       d="m 2337,3433 c -4,-3 -7,-215 -7,-470 l 0,-463 358,2 357,3 3,83 c 2,53 -1,89 -9,98 -9,11 -55,14 -230,14 l -219,0 0,80 0,80 208,2 207,3 3,83 c 2,53 -1,89 -9,98 -9,11 -52,14 -210,14 l -199,0 0,178 c 0,125 -4,182 -12,190 -13,13 -229,18 -241,5 z"
       id="path11"
       style="fill:#d5403a;fill-opacity:1"
       inkscape:connector-curvature="0" />
    <path
       d="m 3177,3433 c -4,-3 -7,-215 -7,-470 l 0,-463 353,2 352,3 3,83 c 2,53 -1,89 -9,98 -9,11 -54,14 -225,14 l -214,0 0,75 0,75 198,2 197,3 3,83 c 2,53 -1,89 -9,98 -9,11 -50,14 -200,14 l -189,0 0,95 0,95 243,2 242,3 3,83 c 2,53 -1,89 -9,98 -9,12 -74,14 -369,14 -196,0 -360,-3 -363,-7 z"
       id="path13"
       style="fill:#d5403a;fill-opacity:1"
       inkscape:connector-curvature="0" />
    <path
       d="m 4277,3433 c -4,-3 -7,-170 -7,-369 l 0,-363 -147,-3 -148,-3 -3,-98 -3,-97 428,2 428,3 3,83 c 2,53 -1,89 -9,98 -9,11 -43,14 -150,14 l -139,0 0,358 c 0,265 -3,361 -12,370 -13,13 -229,18 -241,5 z"
       id="path15"
       style="fill:#d5403a;fill-opacity:1"
       inkscape:connector-curvature="0" />
    <path
       d="m 290,2358 c -73,-37 -111,-114 -95,-194 9,-50 69,-113 120,-124 53,-12 4436,-13 4489,-1 51,12 113,73 127,125 20,75 -26,161 -106,197 -38,18 -128,19 -2265,19 l -2226,0 -44,-22 z"
       id="path17"
       style="fill:#d5403a;fill-opacity:1"
       inkscape:connector-curvature="0" />
    <path
       d="m 307,1963 c -14,-13 -6,-150 12,-234 52,-231 181,-450 380,-642 355,-342 870,-562 1501,-639 156,-19 603,-16 762,5 360,48 644,131 933,272 467,228 803,588 905,970 27,102 38,239 20,260 -11,13 -261,15 -2260,15 -1235,0 -2250,-3 -2253,-7 z m 2516,-252 c 37,-14 34,-28 -10,-40 -71,-20 -165,-8 -171,21 -6,33 112,45 181,19 z m -1745,-27 c 35,-10 26,-30 -25,-55 -60,-29 -153,-39 -153,-15 0,17 42,42 105,62 49,15 45,15 73,8 z m 2686,-113 c 16,-25 -88,-71 -160,-71 -48,0 -54,8 -26,33 39,36 171,63 186,38 z m -1788,-72 c 26,-13 47,-28 46,-34 -4,-18 -115,-11 -160,9 -40,18 -51,34 -34,50 13,14 99,0 148,-25 z m 2277,-251 c 80,-31 -47,-65 -145,-37 -42,11 -51,36 -15,43 12,3 31,7 42,10 26,6 82,-2 118,-16 z m -1568,-58 c 16,-14 16,-15 -11,-27 -16,-7 -55,-12 -86,-13 -91,0 -139,28 -85,50 33,15 161,7 182,-10 z m -1106,-48 c 19,-9 34,-21 33,-27 -3,-17 -127,-18 -166,-1 -41,17 -47,42 -13,49 35,8 109,-3 146,-21 z M 3258,886 c 16,-8 34,-21 40,-29 10,-12 8,-16 -12,-21 -53,-13 -186,29 -186,59 0,27 99,22 158,-9 z M 2225,730 c 16,-14 16,-15 -11,-27 -16,-7 -55,-12 -86,-13 -91,0 -139,28 -85,50 33,15 161,7 182,-10 z"
       id="path19"
       style="fill:#d5403a;fill-opacity:1"
       inkscape:connector-curvature="0" />
  </g>
</svg>
